PathFileType	4	(X/Y/Z)	path1_02_0-1346.trc
DataRate	CameraRate	NumFrames	NumMarkers	Units	OrigDataRate	OrigDataStartFrame	OrigNumFrames
30	30	7	22	m	30	841	1346
Frame#	Time	Hip			RHip			RKnee			RAnkle			RBigToe			RSmallToe			RHeel			LHip			LKnee			LAnkle			LBigToe			LSmallToe			LHeel			Neck			Head			Nose			RShoulder			RElbow			RWrist			LShoulder			LElbow			LWrist		
		X1	Y1	Z1	X2	Y2	Z2	X3	Y3	Z3	X4	Y4	Z4	X5	Y5	Z5	X6	Y6	Z6	X7	Y7	Z7	X8	Y8	Z8	X9	Y9	Z9	X10	Y10	Z10	X11	Y11	Z11	X12	Y12	Z12	X13	Y13	Z13	X14	Y14	Z14	X15	Y15	Z15	X16	Y16	Z16	X17	Y17	Z17	X18	Y18	Z18	X19	Y19	Z19	X20	Y20	Z20	X21	Y21	Z21	X22	Y22	Z22
842	28.066666666666663	-1.6705846389770125	0.8175243968985775	0.2601832525270265	-1.6751515576585176	0.7863869874659455	0.33911435061797335	-1.6882822783024296	0.4576990463059961	0.30697161579366034	-1.708294034838669	0.11285232199364575	0.32240443148269504	-1.5469748947857254	0.03129976314115651	0.33462166530150705	-1.5714293043860483	0.03394508071052509	0.3972659392781512	-1.7455610500653431	0.05403189060698703	0.32434722411101363	-1.6646009474812677	0.7842390927144001	0.19136572520308345	-1.678738455850311	0.4463016626298879	0.20582228249764836	-1.6971479961257838	0.09894955116894676	0.17344917900445964	-1.5251511794463628	0.007566391893708261	0.13499404247602415	-1.541382314455904	0.024204142656214213	0.1019701905140833	-1.7550748836786705	0.03477507250776308	0.164143301574636	-1.6764684133773884	1.4521973239782258	0.22515716750295714	-1.608462647370057	1.7010816541067262	0.25656731874372307	-1.5435317044978965	1.5861804299631541	0.2570035070275707	-1.7199721623543365	1.34961001437908	0.3699010574315357	-1.705714381150817	1.0499904789501315	0.40301961349258797	-1.6136468012649623	0.8577164856902428	0.4636160512478147	-1.7147513503528886	1.3287914385534194	0.13633378439252458	-1.6948697563672999	1.0381692522577677	0.11479009179895283	-1.5883728637689378	0.8604329325691871	0.07243169146606254
843	28.1	-1.6700684085668767	0.8173428941937944	0.2603283315284196	-1.6750423186135717	0.7851757801685664	0.3395050840494944	-1.688151995938924	0.4567460633368023	0.30750902243064865	-1.7080750445729207	0.1116833893530169	0.32433144338858344	-1.5468705217958447	0.031168019012460576	0.3349712173275584	-1.5713921926193573	0.033856530320589225	0.3976883788576566	-1.7455071236369002	0.054492255232805674	0.3243986798459034	-1.6643715055611328	0.7825784822932431	0.19211240876974456	-1.6817132375643615	0.44625947303583646	0.209262471024015	-1.6941722617354484	0.09929963628300346	0.17615730211774644	-1.5253464199311535	0.00677161725174019	0.13488161412641952	-1.5409986001140448	0.023832588680682297	0.10200241735659582	-1.7548758818515178	0.0339713273875383	0.16444244555090684	-1.6763094866460593	1.4524907316354863	0.22557858126014527	-1.6138215113891807	1.703776002621545	0.2574688857093904	-1.5432547964862569	1.5868773950881174	0.25628797031866196	-1.7203036766427982	1.3494441636446444	0.3696653983879468	-1.7057398194901474	1.0501858445953176	0.4026995939283828	-1.6139315054637955	0.8581734051485169	0.4635681687047522	-1.714819534785795	1.32847923428242	0.13604285149845308	-1.6951630676447278	1.0380868399142804	0.11486659506404961	-1.5885109554783068	0.8608587688523451	0.07230065919043395
844	28.133333333333333	-1.6700531797507012	0.817178619278657	0.2603753242117629	-1.6750829299875756	0.7848871907715641	0.33978385317196336	-1.6878702635133926	0.45655414907809094	0.30800746411911817	-1.7078716230722775	0.11061623356882197	0.3261502753059518	-1.547021696246453	0.031070530661502376	0.3350669521141715	-1.571540981152703	0.03374713523242482	0.39785549212377236	-1.7454360336272379	0.05469410952977875	0.32454445257220554	-1.664323598434723	0.7820377929861747	0.19237372582567974	-1.6821935416627505	0.4462964159563182	0.21010634593228225	-1.6923412931758581	0.09957947972299466	0.1771078708084263	-1.5250472868026685	0.006674253310698426	0.1347757527668749	-1.54044157329218	0.023807037931399024	0.10189197904213101	-1.7546779398798253	0.03274822277588574	0.1657241453130807	-1.6763177618422076	1.452594629557449	0.2261045750771119	-1.6176472459979363	1.70655200983135	0.25755031551883717	-1.5432611981865687	1.5875811256160521	0.25557288997679317	-1.7205083389325289	1.3492743595896444	0.36963316633841325	-1.7058491952193686	1.0504136451270414	0.40244323659446224	-1.6140846890596836	0.8583458061642492	0.46359973915591957	-1.7148692452122176	1.328467833189159	0.13585901158282399	-1.6952716549068398	1.0380935695742046	0.11480217859285871	-1.5886197205736885	0.8610193858303714	0.07216739565050778
845	28.166666666666668	-1.6705361380226877	0.8170864143630097	0.26031747046112413	-1.6753771495476448	0.7855033706950629	0.3397490007008233	-1.6875071813226508	0.45702918037688933	0.3082093175184325	-1.7077306052432726	0.1103166298955632	0.32702022179289175	-1.5473899625365137	0.031099341654061023	0.33486979732497485	-1.5718157660281928	0.03372610789850925	0.39773794651683125	-1.7453825077892837	0.05471443816278161	0.32467792787479954	-1.6643767103348988	0.7827121134232417	0.19201837216154546	-1.6796878762921124	0.44631176371391373	0.2076754276062544	-1.6919421019491592	0.09974380116486752	0.17617691219034748	-1.5242983615726957	0.007359007853756527	0.13476894057374716	-1.539824859665538	0.024160708165956925	0.10155597272282266	-1.7545792598541543	0.031200337720472197	0.16786441992222445	-1.6764914523297774	1.4524604701937778	0.22661257833152143	-1.6179567691510262	1.7072585236078202	0.25710601888378726	-1.5435318125746122	1.5881512058308964	0.25540631196905	-1.7206070009276215	1.3490754437411339	0.3697533369967038	-1.706058182830748	1.0506402224880407	0.40227538785935407	-1.6140918230495693	0.8582440306584431	0.46371683935505703	-1.7148193550119701	1.3286883227774646	0.1356944439255833	-1.694978745087182	1.038301946321959	0.11448434146979174	-1.5886877487241031	0.8609744826468337	0.07205778927502199
846	28.2	-1.6714062520675677	0.8170951703900222	0.2601683333693301	-1.6759245184879252	0.7868462563357177	0.33933094954498033	-1.6871234483277344	0.45799272159207005	0.3079902479686637	-1.7076443812577224	0.11119073467795851	0.326412468256239	-1.5478426609488207	0.031347517211723824	0.3344491387575704	-1.572110039462227	0.03388608719530678	0.39741950018015143	-1.7453244435431707	0.054692714276333106	0.3247115669778796	-1.6644822400670782	0.7843811852422271	0.19108611412439264	-1.6746375522924504	0.44623054328133765	0.20238579328508643	-1.6927239987736793	0.09980278579908816	0.1739036591263978	-1.5232210567189717	0.008716591451718034	0.13489718640063358	-1.5392629663299622	0.024842312759622634	0.10096702568959533	-1.754592015375484	0.029593376366449157	0.17033798647032858	-1.6767715795413154	1.452113364327652	0.2270207352249345	-1.6136740375720715	1.7043763089238062	0.2565480008767519	-1.5439777424273873	1.5884569384264449	0.2560182985702315	-1.720648919495077	1.3488849008145334	0.36997315711928436	-1.7063468648802473	1.0508534815320767	0.4022185612309863	-1.6139777727351703	0.8579756282990028	0.46391849059003115	-1.7146088693233237	1.3290327801662067	0.13549404846996116	-1.6942011205607033	1.0386929833976064	0.11387040630579541	-1.5887175908862932	0.8607998088635052	0.07197518499623719
847	28.23333333333333	-1.6724613988742953	0.8172061935756955	0.2599649051249978	-1.676642461253744	0.7885948987577283	0.33861362749885704	-1.6867878457827605	0.4592287669847105	0.30740572573982006	-1.7075538847425065	0.11294551151558349	0.32465189523702875	-1.5482432506907073	0.03180669987932517	0.33391434622501925	-1.5723116290468844	0.034208285935569564	0.3970152544778447	-1.745234979894134	0.054720830218789936	0.32461499574162106	-1.6645933522552863	0.7866085247003907	0.18977340617418212	-1.6684642349973295	0.44612968338821185	0.1957813280576959	-1.6944889481809202	0.09970456877019478	0.17079035622591351	-1.5221610461933242	0.010405350194524756	0.13498279390750575	-1.538899331918093	0.02571659486408118	0.10017826208246867	-1.7546087750485129	0.0285566289943409	0.1720619914613541	-1.6770929686597298	1.4516421445391892	0.22732274232849525	-1.6046514638193519	1.6971536713919027	0.2559657382142848	-1.5444829849819766	1.5884096601622921	0.2572818370143576	-1.7206755536452187	1.348760060038594	0.37026020341863075	-1.7066780592466915	1.0510347935688247	0.40229674942004484	-1.6137861286435937	0.8576756042231996	0.4641994618233066	-1.7141916924553449	1.329410552511659	0.13526572430410153	-1.6930163900165864	1.0391406885750112	0.1130327312727603	-1.5887119240726584	0.8605846620874912	0.07192524232138456
848	28.266666666666666	-1.6734383471376002	0.8173928855115041	0.2597730223619484	-1.6774056924283582	0.7902763343262962	0.3377842381280779	-1.686584882421928	0.46046513475103484	0.30667391819088596	-1.7074009854828573	0.11485617184648403	0.3225551839992516	-1.5484941836086692	0.03237385076350947	0.3333987041486134	-1.5723408317376415	0.034573068884446924	0.39660621045160627	-1.7451261479254443	0.05477564033969157	0.32443690668945574	-1.6646416368987615	0.788814922435471	0.18840489585995468	-1.6631157382433588	0.4461718304487343	0.1899732091498439	-1.6972046393615838	0.09933284175581908	0.16711932861145204	-1.5216628738028142	0.011891880207019062	0.13467452772519742	-1.5388879404056583	0.02656749102995929	0.09932956608890837	-1.7544780033333618	0.028692272981260255	0.17207701293225283	-1.677393886348811	1.4511763215635565	0.22754048775372784	-1.5923728183818981	1.686334952795497	0.2552506220102868	-1.5449336161313678	1.5880268610348853	0.2588320907807996	-1.7206922649045937	1.3487383378399598	0.3706017569752657	-1.706999260705572	1.051162724965451	0.4025179291632062	-1.6135770820484336	0.8574507124965409	0.4645314291300026	-1.7135651363475841	1.3297546780898144	0.13506944611999935	-1.691658188587072	1.0394853518031169	0.11218160531266151	-1.588672315040213	0.8603921973923425	0.07192408025678376
